<svg width="24" height="24" viewBox="0 0 24 24" fill="none" xmlns="http://www.w3.org/2000/svg">
<path d="M6.29051 8.74546C5.063 6.19432 6.83861 5.63353 8.28377 7.60606" stroke="black" stroke-opacity="0.9" stroke-linecap="round" stroke-linejoin="round"/>
<path d="M16.707 7.54022C18.6011 5.15587 18.9875 7.40912 18.3819 9.38132" stroke="black" stroke-opacity="0.9" stroke-linecap="round" stroke-linejoin="round"/>
<path d="M10.4492 8.9931C10.469 8.68236 10.489 8.37228 10.5088 8.06226" stroke="black" stroke-opacity="0.9" stroke-linecap="round" stroke-linejoin="round"/>
<path d="M12.5151 9.38056C12.4936 8.78512 12.5658 8.18854 12.6344 7.59766" stroke="black" stroke-opacity="0.9" stroke-linecap="round" stroke-linejoin="round"/>
<path d="M14.4814 8.99286C14.5843 8.69406 14.5212 8.37252 14.5413 8.0625" stroke="black" stroke-opacity="0.9" stroke-linecap="round" stroke-linejoin="round"/>
<path d="M9.84721 11.9282C12.3046 11.8943 11.8095 12.6092 9.71191 13.3998" stroke="black" stroke-opacity="0.9" stroke-linecap="round" stroke-linejoin="round"/>
<path d="M14.2706 11.8611C12.2168 12.7624 12.6327 12.3847 14.2018 13.4114" stroke="black" stroke-opacity="0.9" stroke-linecap="round" stroke-linejoin="round"/>
<path d="M11.8131 15.272C10.7966 15.3283 11.7316 16.42 12.6116 15.3388" stroke="black" stroke-opacity="0.9" stroke-linecap="round" stroke-linejoin="round"/>
<path d="M11.6034 17.1985C10.9096 17.5006 10.5535 17.3702 10.0522 16.9773" stroke="black" stroke-opacity="0.9" stroke-linecap="round" stroke-linejoin="round"/>
<path d="M11.8359 16.9773C12.3849 17.8456 13.256 17.54 13.9301 16.9773" stroke="black" stroke-opacity="0.9" stroke-linecap="round" stroke-linejoin="round"/>
<path d="M6.56204 13.8765C5.80716 13.8671 4.56922 13.6322 4.08008 13.5664" stroke="black" stroke-opacity="0.9" stroke-linecap="round" stroke-linejoin="round"/>
<path d="M6.71721 15.4111C5.76434 15.4565 4.92702 15.6681 4.15771 16.0309" stroke="black" stroke-opacity="0.9" stroke-linecap="round" stroke-linejoin="round"/>
<path d="M19.9798 12.8533C18.9697 12.9617 18.1321 13.2122 17.3428 13.7223" stroke="black" stroke-opacity="0.9" stroke-linecap="round" stroke-linejoin="round"/>
<path d="M19.918 15.7467C19.1021 15.5323 18.2809 15.5142 17.436 15.5142" stroke="black" stroke-opacity="0.9" stroke-linecap="round" stroke-linejoin="round"/>
</svg>
